<svg width="100" height="143" viewBox="0 0 100 143" fill="none" xmlns="http://www.w3.org/2000/svg">
<path d="M50 0C22.3857 0 0 22.3893 0 50C0 77.6143 50 142.857 50 142.857C50 142.857 100 77.6143 100 50C100 22.3893 77.6143 0 50 0ZM50.5357 75C43.9053 75 37.5465 72.3661 32.858 67.6777C28.1696 62.9893 25.5357 56.6304 25.5357 50C25.5357 43.3696 28.1696 37.0107 32.858 32.3223C37.5465 27.6339 43.9053 25 50.5357 25C57.1661 25 63.525 27.6339 68.2134 32.3223C72.9018 37.0107 75.5357 43.3696 75.5357 50C75.5357 56.6304 72.9018 62.9893 68.2134 67.6777C63.525 72.3661 57.1661 75 50.5357 75Z" fill="#FF3D00"/>
<ellipse cx="49.9286" cy="49.8217" rx="40.7143" ry="40.7143" fill="white"/>
<path d="M86.0466 36.1357V45.6515C80.1535 45.6515 75.1303 49.372 73.1973 54.5924H73.1954C72.6463 53.1109 72.3459 51.5096 72.3459 49.8364C72.3459 42.2702 78.4804 36.1357 86.0466 36.1357Z" fill="#F95428"/>
<path d="M26.6613 45.0781C27.2104 46.5597 27.5108 48.1628 27.5108 49.836C27.5108 57.4022 21.3782 63.5348 13.812 63.5348V54.0208C19.705 54.0208 24.7264 50.2986 26.6595 45.0781H26.6613Z" fill="#F95428"/>
<path d="M26.6613 45.0785H26.6595C24.7264 50.2989 19.705 54.0212 13.812 54.0212V36.1357C19.705 36.1357 24.7283 39.8562 26.6613 45.0785Z" fill="#F7B239"/>
<path d="M86.0464 45.6514V63.535C80.1534 63.535 75.1283 59.8145 73.1953 54.5922H73.1972C75.1302 49.3718 80.1534 45.6514 86.0464 45.6514Z" fill="#F7B239"/>
<path d="M42.5584 28.6592V71.0104C33.7981 67.9644 27.5107 59.6335 27.5107 49.8357C27.5107 40.0361 33.7981 31.7052 42.5584 28.6592Z" fill="#F7B239"/>
<path d="M34.9734 49.8357C34.9734 43.1426 37.9077 37.1361 42.5584 33.029V28.6592C33.7981 31.7052 27.5107 40.0361 27.5107 49.8357C27.5107 59.6335 33.7981 67.9644 42.5584 71.0104V66.6406C37.9077 62.5339 34.9734 56.5276 34.9734 49.8357Z" fill="#E09B2D"/>
<path d="M72.3459 49.8361C72.3459 59.6338 66.0567 67.9666 57.2964 71.0126V28.6577C66.0567 31.7037 72.3459 40.0365 72.3459 49.8361Z" fill="#F7B239"/>
<path d="M57.2964 28.6576V71.0126C54.9893 71.816 52.5109 72.2527 49.9292 72.2527C47.3476 72.2527 44.8673 71.816 42.5583 71.0107V28.6595V28.6576C44.8673 27.8542 47.3476 27.4175 49.9292 27.4175C52.5109 27.4175 54.9893 27.8542 57.2964 28.6576Z" fill="#F95428"/>
<path d="M62.9772 63.8766C62.631 63.8766 62.2843 63.7473 62.0159 63.4874C61.4675 62.9564 61.4535 62.0814 61.9845 61.5332C65.0418 58.3767 66.7255 54.2226 66.7255 49.836C66.7255 46.1263 65.4711 42.4664 63.1937 39.5308C62.7259 38.9277 62.8355 38.0596 63.4384 37.5917C64.0419 37.124 64.9095 37.2335 65.3775 37.8364C68.0292 41.2545 69.4894 45.5159 69.4894 49.836C69.4894 54.9442 67.5291 59.7812 63.9701 63.4561C63.699 63.7358 63.3384 63.8766 62.9772 63.8766ZM61.1409 36.901C60.3777 36.901 59.758 36.2824 59.758 35.519C59.758 34.7556 60.3758 34.137 61.1391 34.137H61.1409C61.9044 34.137 62.523 34.7556 62.523 35.519C62.523 36.2824 61.9042 36.901 61.1409 36.901ZM46.0065 33.4614C45.3717 33.4614 44.7997 33.0212 44.658 32.3755C44.4942 31.6299 44.9657 30.8929 45.7113 30.729C47.9985 30.2262 50.4268 30.1401 52.7457 30.4749C53.5012 30.584 54.0251 31.2848 53.9162 32.0401C53.8073 32.7955 53.1048 33.3194 52.351 33.2106C50.3594 32.9232 48.2686 32.9974 46.3045 33.4288C46.2044 33.4507 46.1045 33.4614 46.0065 33.4614Z" fill="white"/>
<path d="M81.9106 60.141C81.1472 60.141 80.5286 59.5224 80.5286 58.7589V50.1906C80.5286 49.4272 81.1472 48.8086 81.9106 48.8086C82.674 48.8086 83.2926 49.4272 83.2926 50.1906V58.7589C83.2926 59.5222 82.6739 60.141 81.9106 60.141Z" fill="white"/>
<path d="M81.9106 43.8336C81.1472 43.8336 80.5286 43.215 80.5286 42.4516V41.0695C80.5286 40.3061 81.1472 39.6875 81.9106 39.6875C82.674 39.6875 83.2926 40.3061 83.2926 41.0695V42.4516C83.2926 43.2148 82.6739 43.8336 81.9106 43.8336Z" fill="white"/>
<path d="M87.428 36.1358C87.428 35.3723 86.8094 34.7537 86.0459 34.7537C80.2476 34.7537 75.2063 38.0448 72.6833 42.8553C69.6933 33.1274 60.624 26.0356 49.9288 26.0356C39.2335 26.0356 30.1643 33.1274 27.1742 42.8553C24.6511 38.0448 19.6098 34.7537 13.8115 34.7537C13.048 34.7537 12.4294 35.3723 12.4294 36.1358H12.4287L12.4294 63.535C12.4294 64.2984 13.048 64.917 13.8115 64.917C19.6098 64.917 24.6511 61.6259 27.1742 56.8153C30.1643 66.5431 39.2335 73.6348 49.9288 73.6348C60.624 73.6348 69.6931 66.5431 72.6833 56.8153C75.2063 61.6258 80.2476 64.917 86.0459 64.917C86.8094 64.917 87.428 64.2984 87.428 63.535H87.4287L87.428 36.1358ZM84.6639 37.5948V44.3355C80.2666 44.7444 76.2812 47.081 73.7559 50.6181C73.7395 50.359 73.7283 50.0986 73.7283 49.8353C73.7283 43.5107 78.5201 38.284 84.6639 37.5948ZM25.1713 45.0814C23.4452 49.1953 19.5892 52.058 15.1935 52.5596V37.595C19.7008 38.1005 23.4775 41.0498 25.1713 45.0814ZM15.1935 62.0761V55.3354C19.5908 54.9265 23.5762 52.59 26.1015 49.0527C26.1179 49.3118 26.1292 49.5723 26.1292 49.8357C26.1292 56.1603 21.3373 61.3868 15.1935 62.0761ZM28.8932 49.8355C28.8932 41.3577 33.9351 34.0358 41.1774 30.709V68.962C33.9349 65.635 28.8932 58.3133 28.8932 49.8355ZM43.9414 70.0015V29.6693C45.84 29.1047 47.8493 28.7997 49.9288 28.7997C52.0078 28.7997 54.0167 29.1043 55.9147 29.6688V70.0017C54.0165 70.5661 52.0078 70.8707 49.9288 70.8707C47.8493 70.8709 45.84 70.5661 43.9414 70.0015ZM58.6788 68.9626V30.7082C65.9218 34.0349 70.9642 41.3569 70.9642 49.8355C70.9642 58.314 65.9218 65.6359 58.6788 68.9626ZM74.6861 54.5893C76.412 50.4755 80.2681 47.613 84.6639 47.1114V62.0759C80.1566 61.5705 76.3798 58.6212 74.6861 54.5893Z" fill="#333333"/>
<path d="M50 0C22.3857 0 0 22.3893 0 50C0 77.6143 50 142.857 50 142.857C50 142.857 100 77.6143 100 50C100 22.3893 77.6143 0 50 0ZM50.5357 75C43.9053 75 37.5465 72.3661 32.858 67.6777C28.1696 62.9893 25.5357 56.6304 25.5357 50C25.5357 43.3696 28.1696 37.0107 32.858 32.3223C37.5465 27.6339 43.9053 25 50.5357 25C57.1661 25 63.525 27.6339 68.2134 32.3223C72.9018 37.0107 75.5357 43.3696 75.5357 50C75.5357 56.6304 72.9018 62.9893 68.2134 67.6777C63.525 72.3661 57.1661 75 50.5357 75Z" fill="#F95428"/>
<ellipse cx="49.9286" cy="49.8217" rx="40.7143" ry="40.7143" fill="white"/>
<path d="M86.0466 36.1357V45.6515C80.1535 45.6515 75.1303 49.372 73.1973 54.5924H73.1954C72.6463 53.1109 72.3459 51.5096 72.3459 49.8364C72.3459 42.2702 78.4804 36.1357 86.0466 36.1357Z" fill="#F95428"/>
<path d="M26.6613 45.0781C27.2104 46.5597 27.5108 48.1628 27.5108 49.836C27.5108 57.4022 21.3782 63.5348 13.812 63.5348V54.0208C19.705 54.0208 24.7264 50.2986 26.6595 45.0781H26.6613Z" fill="#F95428"/>
<path d="M26.6613 45.0785H26.6595C24.7264 50.2989 19.705 54.0212 13.812 54.0212V36.1357C19.705 36.1357 24.7283 39.8562 26.6613 45.0785Z" fill="#F7B239"/>
<path d="M86.0464 45.6514V63.535C80.1534 63.535 75.1283 59.8145 73.1953 54.5922H73.1972C75.1302 49.3718 80.1534 45.6514 86.0464 45.6514Z" fill="#F7B239"/>
<path d="M42.5584 28.6592V71.0104C33.7981 67.9644 27.5107 59.6335 27.5107 49.8357C27.5107 40.0361 33.7981 31.7052 42.5584 28.6592Z" fill="#F7B239"/>
<path d="M34.9734 49.8357C34.9734 43.1426 37.9077 37.1361 42.5584 33.029V28.6592C33.7981 31.7052 27.5107 40.0361 27.5107 49.8357C27.5107 59.6335 33.7981 67.9644 42.5584 71.0104V66.6406C37.9077 62.5339 34.9734 56.5276 34.9734 49.8357Z" fill="#E09B2D"/>
<path d="M72.3459 49.8361C72.3459 59.6338 66.0567 67.9666 57.2964 71.0126V28.6577C66.0567 31.7037 72.3459 40.0365 72.3459 49.8361Z" fill="#F7B239"/>
<path d="M57.2964 28.6576V71.0126C54.9893 71.816 52.5109 72.2527 49.9292 72.2527C47.3476 72.2527 44.8673 71.816 42.5583 71.0107V28.6595V28.6576C44.8673 27.8542 47.3476 27.4175 49.9292 27.4175C52.5109 27.4175 54.9893 27.8542 57.2964 28.6576Z" fill="#F95428"/>
<path d="M62.9772 63.8766C62.631 63.8766 62.2843 63.7473 62.0159 63.4874C61.4675 62.9564 61.4535 62.0814 61.9845 61.5332C65.0418 58.3767 66.7255 54.2226 66.7255 49.836C66.7255 46.1263 65.4711 42.4664 63.1937 39.5308C62.7259 38.9277 62.8355 38.0596 63.4384 37.5917C64.0419 37.124 64.9095 37.2335 65.3775 37.8364C68.0292 41.2545 69.4894 45.5159 69.4894 49.836C69.4894 54.9442 67.5291 59.7812 63.9701 63.4561C63.699 63.7358 63.3384 63.8766 62.9772 63.8766ZM61.1409 36.901C60.3777 36.901 59.758 36.2824 59.758 35.519C59.758 34.7556 60.3758 34.137 61.1391 34.137H61.1409C61.9044 34.137 62.523 34.7556 62.523 35.519C62.523 36.2824 61.9042 36.901 61.1409 36.901ZM46.0065 33.4614C45.3717 33.4614 44.7997 33.0212 44.658 32.3755C44.4942 31.6299 44.9657 30.8929 45.7113 30.729C47.9985 30.2262 50.4268 30.1401 52.7457 30.4749C53.5012 30.584 54.0251 31.2848 53.9162 32.0401C53.8073 32.7955 53.1048 33.3194 52.351 33.2106C50.3594 32.9232 48.2686 32.9974 46.3045 33.4288C46.2044 33.4507 46.1045 33.4614 46.0065 33.4614Z" fill="white"/>
<path d="M81.9106 60.141C81.1472 60.141 80.5286 59.5224 80.5286 58.7589V50.1906C80.5286 49.4272 81.1472 48.8086 81.9106 48.8086C82.674 48.8086 83.2926 49.4272 83.2926 50.1906V58.7589C83.2926 59.5222 82.6739 60.141 81.9106 60.141Z" fill="white"/>
<path d="M81.9106 43.8336C81.1472 43.8336 80.5286 43.215 80.5286 42.4516V41.0695C80.5286 40.3061 81.1472 39.6875 81.9106 39.6875C82.674 39.6875 83.2926 40.3061 83.2926 41.0695V42.4516C83.2926 43.2148 82.6739 43.8336 81.9106 43.8336Z" fill="white"/>
<path d="M87.428 36.1358C87.428 35.3723 86.8094 34.7537 86.0459 34.7537C80.2476 34.7537 75.2063 38.0448 72.6833 42.8553C69.6933 33.1274 60.624 26.0356 49.9288 26.0356C39.2335 26.0356 30.1643 33.1274 27.1742 42.8553C24.6511 38.0448 19.6098 34.7537 13.8115 34.7537C13.048 34.7537 12.4294 35.3723 12.4294 36.1358H12.4287L12.4294 63.535C12.4294 64.2984 13.048 64.917 13.8115 64.917C19.6098 64.917 24.6511 61.6259 27.1742 56.8153C30.1643 66.5431 39.2335 73.6348 49.9288 73.6348C60.624 73.6348 69.6931 66.5431 72.6833 56.8153C75.2063 61.6258 80.2476 64.917 86.0459 64.917C86.8094 64.917 87.428 64.2984 87.428 63.535H87.4287L87.428 36.1358ZM84.6639 37.5948V44.3355C80.2666 44.7444 76.2812 47.081 73.7559 50.6181C73.7395 50.359 73.7283 50.0986 73.7283 49.8353C73.7283 43.5107 78.5201 38.284 84.6639 37.5948ZM25.1713 45.0814C23.4452 49.1953 19.5892 52.058 15.1935 52.5596V37.595C19.7008 38.1005 23.4775 41.0498 25.1713 45.0814ZM15.1935 62.0761V55.3354C19.5908 54.9265 23.5762 52.59 26.1015 49.0527C26.1179 49.3118 26.1292 49.5723 26.1292 49.8357C26.1292 56.1603 21.3373 61.3868 15.1935 62.0761ZM28.8932 49.8355C28.8932 41.3577 33.9351 34.0358 41.1774 30.709V68.962C33.9349 65.635 28.8932 58.3133 28.8932 49.8355ZM43.9414 70.0015V29.6693C45.84 29.1047 47.8493 28.7997 49.9288 28.7997C52.0078 28.7997 54.0167 29.1043 55.9147 29.6688V70.0017C54.0165 70.5661 52.0078 70.8707 49.9288 70.8707C47.8493 70.8709 45.84 70.5661 43.9414 70.0015ZM58.6788 68.9626V30.7082C65.9218 34.0349 70.9642 41.3569 70.9642 49.8355C70.9642 58.314 65.9218 65.6359 58.6788 68.9626ZM74.6861 54.5893C76.412 50.4755 80.2681 47.613 84.6639 47.1114V62.0759C80.1566 61.5705 76.3798 58.6212 74.6861 54.5893Z" fill="#333333"/>
</svg>
