<svg width="100" height="143" viewBox="0 0 100 143" fill="none" xmlns="http://www.w3.org/2000/svg">
<path d="M50 0C22.3857 0 0 22.3893 0 50C0 77.6143 50 142.857 50 142.857C50 142.857 100 77.6143 100 50C100 22.3893 77.6143 0 50 0ZM50.5357 75C43.9053 75 37.5465 72.3661 32.858 67.6777C28.1696 62.9893 25.5357 56.6304 25.5357 50C25.5357 43.3696 28.1696 37.0107 32.858 32.3223C37.5465 27.6339 43.9053 25 50.5357 25C57.1661 25 63.525 27.6339 68.2134 32.3223C72.9018 37.0107 75.5357 43.3696 75.5357 50C75.5357 56.6304 72.9018 62.9893 68.2134 67.6777C63.525 72.3661 57.1661 75 50.5357 75Z" fill="#6DC82A"/>
<ellipse cx="49.9286" cy="49.8217" rx="40.7143" ry="40.7143" fill="white"/>
<g clip-path="url(#clip0_27_99)">
<path d="M27.0098 29.7758L32.893 35.6591L35.6597 32.8924L29.7763 27.0093L27.0098 29.7758Z" fill="#5EAC24"/>
<path d="M70.0805 27.0093L64.1973 32.8926L66.9639 35.6592L72.8471 29.7758L70.0805 27.0093Z" fill="#5EAC24"/>
<path d="M49.9285 79.9283C33.3866 79.9283 19.9285 68.2253 19.9285 53.8413C19.9285 39.4572 33.3866 27.7544 49.9285 27.7544C66.4703 27.7544 79.9285 39.4572 79.9285 53.8414C79.9285 68.2256 66.4703 79.9283 49.9285 79.9283Z" fill="#91DC5A"/>
<path d="M79.9285 53.8414C79.9285 39.4573 66.4703 27.7544 49.9285 27.7544V79.9284C66.4703 79.9284 79.9285 68.2254 79.9285 53.8414Z" fill="#6DC82A"/>
<path d="M49.9284 35.5806C42.017 35.5806 35.5806 42.0181 35.5806 49.9284C35.5806 57.8387 42.017 64.2763 49.9284 64.2763C57.8399 64.2763 64.2763 57.8386 64.2763 49.9284C64.2763 42.0183 57.8399 35.5806 49.9284 35.5806Z" fill="#DCF4CA"/>
<path d="M64.2763 49.9284C64.2763 42.0181 57.8399 35.5806 49.9285 35.5806V64.2763C57.8399 64.2763 64.2763 57.8386 64.2763 49.9284Z" fill="#B6E892"/>
<path d="M49.9285 56.4502C53.5303 56.4502 56.4502 53.5303 56.4502 49.9285C56.4502 46.3266 53.5303 43.4067 49.9285 43.4067C46.3266 43.4067 43.4067 46.3266 43.4067 49.9285C43.4067 53.5303 46.3266 56.4502 49.9285 56.4502Z" fill="#806749"/>
<path d="M56.4502 49.9285C56.4502 46.3266 53.5302 43.4067 49.9285 43.4067V56.4502C53.5303 56.4502 56.4502 53.5303 56.4502 49.9285Z" fill="#5F4D37"/>
<path d="M51.885 49.9283C50.806 49.9283 49.9285 49.0503 49.9285 47.9717C49.9285 46.8931 50.8059 46.0151 51.885 46.0151C52.9641 46.0151 53.8416 46.8931 53.8416 47.9717C53.8416 49.0503 52.9641 49.9283 51.885 49.9283Z" fill="white"/>
<path d="M57.7546 72.1021H43.4068C42.3259 72.1021 41.4502 71.2263 41.4502 70.1455C41.4502 69.0647 42.3259 68.189 43.4068 68.189H57.7546C58.8354 68.189 59.7112 69.0647 59.7112 70.1455C59.7112 71.2263 58.8353 72.1021 57.7546 72.1021Z" fill="#5F4D37"/>
<path d="M25.798 31.6674C29.0397 31.6674 31.6676 29.0395 31.6676 25.7978C31.6676 22.5561 29.0397 19.9282 25.798 19.9282C22.5564 19.9282 19.9285 22.5561 19.9285 25.7978C19.9285 29.0395 22.5564 31.6674 25.798 31.6674Z" fill="#91DC5A"/>
<path d="M31.6677 25.7978C31.6677 22.556 29.0397 19.9282 25.7981 19.9282V31.6674C29.0397 31.6674 31.6677 29.0394 31.6677 25.7978Z" fill="#6DC82A"/>
<path d="M74.0588 31.6674C77.3005 31.6674 79.9284 29.0395 79.9284 25.7978C79.9284 22.5561 77.3005 19.9282 74.0588 19.9282C70.8171 19.9282 68.1892 22.5561 68.1892 25.7978C68.1892 29.0395 70.8171 31.6674 74.0588 31.6674Z" fill="#91DC5A"/>
<path d="M79.9284 25.7978C79.9284 22.556 77.3006 19.9282 74.0588 19.9282V31.6674C77.3006 31.6674 79.9284 29.0394 79.9284 25.7978Z" fill="#6DC82A"/>
</g>
<defs>
<clipPath id="clip0_27_99">
<rect width="60" height="60" fill="white" transform="translate(19.9285 19.9282)"/>
</clipPath>
</defs>
</svg>
