<svg width="100" height="143" viewBox="0 0 100 143" fill="none" xmlns="http://www.w3.org/2000/svg">
<path d="M50 0C22.3857 0 0 22.3893 0 50C0 77.6143 50 142.857 50 142.857C50 142.857 100 77.6143 100 50C100 22.3893 77.6143 0 50 0ZM50.5357 75C43.9053 75 37.5465 72.3661 32.858 67.6777C28.1696 62.9893 25.5357 56.6304 25.5357 50C25.5357 43.3696 28.1696 37.0107 32.858 32.3223C37.5465 27.6339 43.9053 25 50.5357 25C57.1661 25 63.525 27.6339 68.2134 32.3223C72.9018 37.0107 75.5357 43.3696 75.5357 50C75.5357 56.6304 72.9018 62.9893 68.2134 67.6777C63.525 72.3661 57.1661 75 50.5357 75Z" fill="#FFCE54"/>
<ellipse cx="49.9286" cy="49.8217" rx="40.7143" ry="40.7143" fill="white"/>
<g clip-path="url(#clip0_27_100)">
<path d="M41.5161 62.9556C41.5161 62.6361 41.3889 62.3289 41.1629 62.1029L37.7535 58.6933C37.2829 58.222 36.5193 58.222 36.0487 58.6933L25.205 69.5381C24.7344 70.0078 24.7344 70.7705 25.205 71.242L28.6144 74.6514C29.085 75.121 29.8485 75.121 30.3191 74.6514L41.1628 63.8067C41.3889 63.5808 41.5161 63.2752 41.5161 62.9556Z" fill="#ED5564"/>
<path d="M76.4628 31.9181C76.6217 31.7583 76.733 31.5561 76.7842 31.3363L78.8271 22.4763C78.9189 22.071 78.7971 21.6473 78.504 21.3532C78.211 21.0592 77.7854 20.9374 77.381 21.0309L68.521 23.072C68.3003 23.1232 68.0991 23.2345 67.9401 23.3943L36.9016 54.4311C36.4311 54.9025 36.4311 55.6653 36.9016 56.1368L43.7197 62.9557C43.9457 63.1817 44.253 63.3088 44.5724 63.3088C44.892 63.3088 45.1984 63.1817 45.4244 62.9557L76.4628 31.9181Z" fill="#CCD1D9"/>
<path opacity="0.2" d="M78.5039 21.3532C78.2108 21.0592 77.7853 20.9374 77.3809 21.0309L68.5209 23.072C68.3002 23.1232 68.099 23.2345 67.94 23.3943L36.9016 54.4311C36.4311 54.9025 36.4311 55.6653 36.9016 56.1368L43.7197 62.9557C43.9457 63.1817 44.253 63.3088 44.5724 63.3088C44.892 63.3088 45.1984 63.1817 45.4244 62.9557L76.4628 31.9181C76.6217 31.7583 76.733 31.5561 76.7842 31.3363L78.8271 22.4763C78.9189 22.0709 78.7971 21.6472 78.5039 21.3532ZM77.6511 22.2052L75.61 31.0652L44.5724 62.1028L37.7536 55.2838L68.7911 24.2471L77.6511 22.2052Z" fill="white"/>
<path d="M40.3101 59.5459C39.8395 59.0745 39.8395 58.3118 40.3101 57.8403L62.1467 36.0053C62.6182 35.5347 63.381 35.5347 63.8506 36.0053C64.3221 36.4758 64.3221 37.2395 63.8506 37.71L42.0148 59.5458C41.5443 60.0157 40.7815 60.0157 40.3101 59.5459Z" fill="#AAB2BC"/>
<path d="M29.7295 65.0127H39.957L41.163 63.8067C41.389 63.5807 41.5161 63.2753 41.5161 62.9557C41.5161 62.8339 41.4976 62.7155 41.4631 62.6025H32.1404L29.7295 65.0127Z" fill="#DA4453"/>
<path d="M37.2548 67.7158H27.0263L25.205 69.538C25.0373 69.7057 24.9304 69.9106 24.882 70.126H34.8438L37.2548 67.7158Z" fill="#DA4453"/>
<path d="M49.6859 65.5124L34.344 50.1708C33.8735 49.7002 33.1107 49.7002 32.6402 50.1708L30.0826 52.7274C29.6121 53.1988 29.6121 53.9616 30.0826 54.4313L45.4244 69.7731C45.6504 69.9991 45.9568 70.1263 46.2763 70.1263C46.5968 70.1263 46.9032 69.9991 47.1292 69.7731L49.6859 67.2164C50.1563 66.7467 50.1563 65.9822 49.6859 65.5124Z" fill="#FFCE54"/>
<path d="M30.6423 74.0352C30.6423 72.7479 30.1408 71.5369 29.2307 70.6257C27.3503 68.7452 24.2922 68.7452 22.4118 70.6257C21.5015 71.5367 21.0001 72.7479 21.0001 74.0352C21.0001 75.3223 21.5016 76.5334 22.4118 77.4446C23.3228 78.3556 24.5332 78.8571 25.8212 78.8571C27.1092 78.8571 28.3196 78.3556 29.2307 77.4446C30.1409 76.5336 30.6423 75.3223 30.6423 74.0352Z" fill="#FFCE54"/>
<path d="M25.8212 75.2403C26.4867 75.2403 27.0262 74.7005 27.0262 74.0345C27.0262 73.3685 26.4867 72.8286 25.8212 72.8286C25.1556 72.8286 24.6161 73.3685 24.6161 74.0345C24.6161 74.7005 25.1556 75.2403 25.8212 75.2403Z" fill="#F6BB42"/>
</g>
<defs>
<clipPath id="clip0_27_100">
<rect width="57.8571" height="57.8571" fill="white" transform="translate(21 21)"/>
</clipPath>
</defs>
</svg>
