<svg width="100" height="100" viewBox="0 0 100 100" fill="none" xmlns="http://www.w3.org/2000/svg">
<path d="M18.6302 38.9165L56.6131 44.0331L61.2659 80.8908L89.373 10.6194L18.6302 38.9165ZM3.30325 44.5197C2.46977 44.4095 1.69632 44.0262 1.10393 43.4296C0.511541 42.833 0.13364 42.0569 0.0293597 41.2226C-0.0749203 40.3884 0.100305 39.5431 0.527615 38.8191C0.954925 38.095 1.61021 37.5331 2.39093 37.2211L94.7861 0.272222C95.4769 -0.00429222 96.2336 -0.0719828 96.9625 0.0775422C97.6915 0.227067 98.3605 0.587231 98.8866 1.11338C99.4128 1.63954 99.7729 2.30854 99.9225 3.03746C100.072 3.76637 100.004 4.52314 99.7278 5.21395L62.8625 97.3582C62.5495 98.1392 61.9862 98.7942 61.261 99.2208C60.5357 99.6473 59.6894 99.8211 58.8548 99.715C58.0201 99.609 57.2442 99.229 56.6487 98.6346C56.0532 98.0403 55.6716 97.2651 55.5639 96.4307L49.8011 50.7843L3.30325 44.5197Z" fill="black"/>
</svg>
